<mxfile host="Electron" modified="2023-05-08T14:37:22.053Z" agent="Mozilla/5.0 (Windows NT 10.0; Win64; x64) AppleWebKit/537.36 (KHTML, like Gecko) draw.io/21.2.8 Chrome/112.0.5615.165 Electron/24.2.0 Safari/537.36" etag="zk9F-20b9fdk6oW_-Wv5" version="21.2.8" type="device">
  <diagram id="C5RBs43oDa-KdzZeNtuy" name="Page-1">
    <mxGraphModel dx="1098" dy="1997" grid="1" gridSize="10" guides="1" tooltips="1" connect="1" arrows="1" fold="1" page="1" pageScale="1" pageWidth="827" pageHeight="1169" math="0" shadow="0">
      <root>
        <mxCell id="WIyWlLk6GJQsqaUBKTNV-0" />
        <mxCell id="WIyWlLk6GJQsqaUBKTNV-1" parent="WIyWlLk6GJQsqaUBKTNV-0" />
        <mxCell id="jptzYvX1HZ7frNo7eppI-2" value="&lt;p style=&quot;text-align: center; margin: 4px 0px 0px; text-decoration: underline; line-height: 110%; font-size: 11px;&quot;&gt;&lt;font color=&quot;#ffffff&quot; style=&quot;font-size: 11px;&quot;&gt;&lt;b style=&quot;&quot;&gt;User&lt;/b&gt;&lt;/font&gt;&lt;/p&gt;&lt;hr style=&quot;line-height: 110%; font-size: 11px;&quot;&gt;&lt;p style=&quot;margin: 4px 0px 0px; line-height: 110%; font-size: 11px;&quot;&gt;&lt;font color=&quot;#ffffff&quot; style=&quot;font-size: 11px;&quot;&gt;&lt;b style=&quot;&quot;&gt;&amp;nbsp;id&lt;/b&gt;&lt;/font&gt;&lt;/p&gt;&lt;p style=&quot;margin: 4px 0px 0px; line-height: 110%; font-size: 11px;&quot;&gt;&lt;font color=&quot;#ffffff&quot; style=&quot;font-size: 11px;&quot;&gt;&lt;b style=&quot;&quot;&gt;&amp;nbsp;firstname&lt;/b&gt;&lt;/font&gt;&lt;/p&gt;&lt;p style=&quot;margin: 4px 0px 0px; line-height: 110%; font-size: 11px;&quot;&gt;&lt;font color=&quot;#ffffff&quot; style=&quot;font-size: 11px;&quot;&gt;&lt;b style=&quot;&quot;&gt;&amp;nbsp;lastname&lt;/b&gt;&lt;/font&gt;&lt;/p&gt;&lt;div&gt;&lt;font style=&quot;border-color: var(--border-color);&quot; color=&quot;#ffffff&quot;&gt;&lt;b style=&quot;border-color: var(--border-color);&quot;&gt;&lt;b style=&quot;border-color: var(--border-color); font-size: 11px; background-color: initial;&quot;&gt;&amp;nbsp;role_id&lt;/b&gt;&lt;/b&gt;&lt;/font&gt;&lt;/div&gt;&lt;p style=&quot;margin: 4px 0px 0px; line-height: 110%; font-size: 11px;&quot;&gt;&lt;font color=&quot;#ffffff&quot; style=&quot;font-size: 11px;&quot;&gt;&lt;b style=&quot;&quot;&gt;&amp;nbsp;email&lt;/b&gt;&lt;/font&gt;&lt;/p&gt;&lt;p style=&quot;margin: 4px 0px 0px; line-height: 110%; font-size: 11px;&quot;&gt;&lt;font color=&quot;#ffffff&quot; style=&quot;font-size: 11px;&quot;&gt;&lt;b style=&quot;&quot;&gt;&amp;nbsp;birthday&lt;/b&gt;&lt;/font&gt;&lt;/p&gt;&lt;p style=&quot;margin: 4px 0px 0px; line-height: 110%; font-size: 11px;&quot;&gt;&lt;font color=&quot;#ffffff&quot; style=&quot;font-size: 11px;&quot;&gt;&lt;b style=&quot;&quot;&gt;&amp;nbsp;phone&lt;/b&gt;&lt;/font&gt;&lt;/p&gt;&lt;p style=&quot;margin: 4px 0px 0px; line-height: 110%; font-size: 11px;&quot;&gt;&lt;font color=&quot;#ffffff&quot; style=&quot;font-size: 11px;&quot;&gt;&lt;b style=&quot;&quot;&gt;&amp;nbsp;address&lt;/b&gt;&lt;/font&gt;&lt;/p&gt;&lt;p style=&quot;margin: 4px 0px 0px; line-height: 110%; font-size: 11px;&quot;&gt;&lt;font color=&quot;#ffffff&quot; style=&quot;font-size: 11px;&quot;&gt;&lt;b style=&quot;&quot;&gt;&amp;nbsp;city&lt;/b&gt;&lt;/font&gt;&lt;/p&gt;&lt;p style=&quot;margin: 4px 0px 0px; line-height: 110%; font-size: 11px;&quot;&gt;&lt;font color=&quot;#ffffff&quot; style=&quot;font-size: 11px;&quot;&gt;&lt;b style=&quot;&quot;&gt;&amp;nbsp;imageURL&lt;/b&gt;&lt;/font&gt;&lt;/p&gt;" style="verticalAlign=middle;align=left;overflow=fill;fontSize=12;fontFamily=Helvetica;html=1;strokeColor=#003366;shadow=1;fillColor=#969696;fontColor=#003366;gradientColor=#303030;labelPosition=center;verticalLabelPosition=middle;spacingTop=0;spacingLeft=6;" parent="WIyWlLk6GJQsqaUBKTNV-1" vertex="1">
          <mxGeometry x="380" y="100" width="165" height="210" as="geometry" />
        </mxCell>
        <mxCell id="jptzYvX1HZ7frNo7eppI-3" value="&lt;p style=&quot;text-align: center; margin: 4px 0px 0px; text-decoration: underline; line-height: 110%; font-size: 11px;&quot;&gt;&lt;font color=&quot;#ffffff&quot; style=&quot;font-size: 11px;&quot;&gt;&lt;b style=&quot;&quot;&gt;Game&lt;/b&gt;&lt;/font&gt;&lt;/p&gt;&lt;hr style=&quot;line-height: 110%; font-size: 11px;&quot;&gt;&lt;p style=&quot;margin: 4px 0px 0px; line-height: 110%; font-size: 11px;&quot;&gt;&lt;font color=&quot;#ffffff&quot; style=&quot;font-size: 11px;&quot;&gt;&lt;b style=&quot;&quot;&gt;&amp;nbsp;id&lt;/b&gt;&lt;/font&gt;&lt;/p&gt;&lt;p style=&quot;margin: 4px 0px 0px; line-height: 110%; font-size: 11px;&quot;&gt;&lt;font color=&quot;#ffffff&quot; style=&quot;font-size: 11px;&quot;&gt;&lt;b style=&quot;&quot;&gt;&amp;nbsp;name&lt;/b&gt;&lt;/font&gt;&lt;/p&gt;&lt;p style=&quot;margin: 4px 0px 0px; line-height: 110%; font-size: 11px;&quot;&gt;&lt;b style=&quot;color: rgb(255, 255, 255); background-color: initial;&quot;&gt;&amp;nbsp;price&lt;/b&gt;&lt;br&gt;&lt;/p&gt;&lt;p style=&quot;margin: 4px 0px 0px; line-height: 110%; font-size: 11px;&quot;&gt;&lt;font color=&quot;#ffffff&quot; style=&quot;font-size: 11px;&quot;&gt;&lt;b style=&quot;&quot;&gt;description&lt;/b&gt;&lt;/font&gt;&lt;/p&gt;&lt;p style=&quot;margin: 4px 0px 0px; line-height: 110%; font-size: 11px;&quot;&gt;&lt;font color=&quot;#ffffff&quot; style=&quot;font-size: 11px;&quot;&gt;&lt;b style=&quot;&quot;&gt;requirements&lt;/b&gt;&lt;/font&gt;&lt;/p&gt;&lt;p style=&quot;margin: 4px 0px 0px; line-height: 110%; font-size: 11px;&quot;&gt;&lt;font color=&quot;#ffffff&quot; style=&quot;font-size: 11px;&quot;&gt;&lt;b style=&quot;&quot;&gt;&amp;nbsp;imageUrl&lt;/b&gt;&lt;/font&gt;&lt;/p&gt;&lt;p style=&quot;margin: 4px 0px 0px; line-height: 110%; font-size: 11px;&quot;&gt;&lt;font color=&quot;#ffffff&quot; style=&quot;font-size: 11px;&quot;&gt;&lt;b style=&quot;&quot;&gt;&amp;nbsp;&lt;/b&gt;&lt;/font&gt;&lt;/p&gt;&lt;p style=&quot;margin: 4px 0px 0px; line-height: 110%; font-size: 11px;&quot;&gt;&lt;font color=&quot;#ffffff&quot; style=&quot;font-size: 11px;&quot;&gt;&lt;b style=&quot;&quot;&gt;&amp;nbsp;&lt;/b&gt;&lt;/font&gt;&lt;/p&gt;&lt;p style=&quot;margin: 4px 0px 0px; line-height: 110%; font-size: 11px;&quot;&gt;&lt;font color=&quot;#ffffff&quot; style=&quot;font-size: 11px;&quot;&gt;&lt;b style=&quot;&quot;&gt;&amp;nbsp;&lt;/b&gt;&lt;/font&gt;&lt;/p&gt;&lt;p style=&quot;margin: 4px 0px 0px; line-height: 110%; font-size: 11px;&quot;&gt;&lt;font color=&quot;#ffffff&quot; style=&quot;font-size: 11px;&quot;&gt;&lt;b style=&quot;&quot;&gt;&amp;nbsp;&lt;/b&gt;&lt;/font&gt;&lt;/p&gt;&lt;p style=&quot;margin: 4px 0px 0px; line-height: 110%; font-size: 11px;&quot;&gt;&lt;font color=&quot;#ffffff&quot; style=&quot;font-size: 11px;&quot;&gt;&lt;b style=&quot;&quot;&gt;&amp;nbsp;&lt;/b&gt;&lt;/font&gt;&lt;/p&gt;" style="verticalAlign=middle;align=left;overflow=fill;fontSize=12;fontFamily=Helvetica;html=1;strokeColor=#003366;shadow=1;fillColor=#969696;fontColor=#003366;gradientColor=#303030;labelPosition=center;verticalLabelPosition=middle;spacingTop=0;spacingLeft=6;" parent="WIyWlLk6GJQsqaUBKTNV-1" vertex="1">
          <mxGeometry x="610" y="100" width="165" height="130" as="geometry" />
        </mxCell>
        <mxCell id="jptzYvX1HZ7frNo7eppI-5" value="&lt;p style=&quot;text-align: center; margin: 4px 0px 0px; text-decoration: underline; line-height: 110%; font-size: 11px;&quot;&gt;&lt;/p&gt;&lt;p style=&quot;margin: 4px 0px 0px; line-height: 110%; font-size: 11px;&quot;&gt;&lt;font color=&quot;#ffffff&quot; style=&quot;font-size: 11px;&quot;&gt;&lt;b style=&quot;&quot;&gt;&amp;nbsp;&lt;span style=&quot;white-space: pre;&quot;&gt; &lt;/span&gt;&lt;span style=&quot;white-space: pre;&quot;&gt; &lt;/span&gt;&lt;u&gt;Genre&lt;/u&gt;&lt;/b&gt;&lt;/font&gt;&lt;/p&gt;&lt;hr&gt;&lt;p style=&quot;margin: 4px 0px 0px; line-height: 110%; font-size: 11px;&quot;&gt;&lt;font color=&quot;#ffffff&quot; style=&quot;font-size: 11px;&quot;&gt;&lt;b style=&quot;&quot;&gt;&amp;nbsp;id&lt;/b&gt;&lt;/font&gt;&lt;/p&gt;&lt;p style=&quot;margin: 4px 0px 0px; line-height: 110%; font-size: 11px;&quot;&gt;&lt;font color=&quot;#ffffff&quot; style=&quot;font-size: 11px;&quot;&gt;&lt;b style=&quot;&quot;&gt;&amp;nbsp;name&lt;/b&gt;&lt;/font&gt;&lt;/p&gt;&lt;p style=&quot;margin: 4px 0px 0px; line-height: 110%; font-size: 11px;&quot;&gt;&lt;br&gt;&lt;/p&gt;" style="verticalAlign=middle;align=left;overflow=fill;fontSize=12;fontFamily=Helvetica;html=1;strokeColor=#003366;shadow=1;fillColor=#969696;fontColor=#003366;gradientColor=#303030;labelPosition=center;verticalLabelPosition=middle;spacingTop=0;spacingLeft=6;" parent="WIyWlLk6GJQsqaUBKTNV-1" vertex="1">
          <mxGeometry x="1076" y="100" width="165" height="70" as="geometry" />
        </mxCell>
        <mxCell id="jptzYvX1HZ7frNo7eppI-8" value="&lt;p style=&quot;text-align: center; margin: 4px 0px 0px; text-decoration: underline; line-height: 110%; font-size: 11px;&quot;&gt;&lt;/p&gt;&lt;blockquote style=&quot;margin: 0 0 0 40px; border: none; padding: 0px;&quot;&gt;&lt;p style=&quot;margin: 4px 0px 0px; line-height: 110%;&quot;&gt;&lt;font color=&quot;#ffffff&quot;&gt;&lt;b&gt;purchased&lt;/b&gt;&lt;/font&gt;&lt;/p&gt;&lt;/blockquote&gt;&lt;hr&gt;&lt;p style=&quot;margin: 4px 0px 0px; line-height: 110%; font-size: 11px;&quot;&gt;&lt;b style=&quot;background-color: initial; color: rgb(255, 255, 255);&quot;&gt;&amp;nbsp;purchase_id&lt;/b&gt;&lt;/p&gt;&lt;b style=&quot;border-color: var(--border-color); font-size: 11px; background-color: initial; color: rgb(255, 255, 255);&quot;&gt;&amp;nbsp;userId&lt;br&gt;&amp;nbsp;user_Username&lt;br&gt;&lt;/b&gt;&lt;p style=&quot;margin: 4px 0px 0px; line-height: 110%; font-size: 11px;&quot;&gt;&lt;font color=&quot;#ffffff&quot;&gt;&lt;b&gt;&amp;nbsp;orderDate&lt;/b&gt;&lt;/font&gt;&lt;/p&gt;&lt;p style=&quot;margin: 4px 0px 0px; line-height: 110%; font-size: 11px;&quot;&gt;&lt;font color=&quot;#ffffff&quot;&gt;&lt;b&gt;&amp;nbsp;TotalPrice&lt;/b&gt;&lt;/font&gt;&lt;/p&gt;&lt;p style=&quot;margin: 4px 0px 0px; line-height: 110%; font-size: 11px;&quot;&gt;&lt;br&gt;&lt;/p&gt;&lt;p style=&quot;margin: 4px 0px 0px; line-height: 110%; font-size: 11px;&quot;&gt;&lt;font color=&quot;#ffffff&quot; style=&quot;font-size: 11px;&quot;&gt;&lt;b style=&quot;&quot;&gt;&amp;nbsp;&lt;/b&gt;&lt;/font&gt;&lt;/p&gt;&lt;p style=&quot;margin: 4px 0px 0px; line-height: 110%; font-size: 11px;&quot;&gt;&lt;font color=&quot;#ffffff&quot; style=&quot;font-size: 11px;&quot;&gt;&lt;b style=&quot;&quot;&gt;&amp;nbsp;&lt;/b&gt;&lt;/font&gt;&lt;/p&gt;&lt;p style=&quot;margin: 4px 0px 0px; line-height: 110%; font-size: 11px;&quot;&gt;&lt;font color=&quot;#ffffff&quot; style=&quot;font-size: 11px;&quot;&gt;&lt;b style=&quot;&quot;&gt;&amp;nbsp;&lt;/b&gt;&lt;/font&gt;&lt;/p&gt;&lt;p style=&quot;margin: 4px 0px 0px; line-height: 110%; font-size: 11px;&quot;&gt;&lt;font color=&quot;#ffffff&quot; style=&quot;font-size: 11px;&quot;&gt;&lt;b style=&quot;&quot;&gt;&amp;nbsp;&lt;/b&gt;&lt;/font&gt;&lt;/p&gt;&lt;p style=&quot;margin: 4px 0px 0px; line-height: 110%; font-size: 11px;&quot;&gt;&lt;font color=&quot;#ffffff&quot; style=&quot;font-size: 11px;&quot;&gt;&lt;b style=&quot;&quot;&gt;&amp;nbsp;&lt;/b&gt;&lt;/font&gt;&lt;/p&gt;" style="verticalAlign=middle;align=left;overflow=fill;fontSize=12;fontFamily=Helvetica;html=1;strokeColor=#003366;shadow=1;fillColor=#969696;fontColor=#003366;gradientColor=#303030;labelPosition=center;verticalLabelPosition=middle;spacingTop=0;spacingLeft=6;" parent="WIyWlLk6GJQsqaUBKTNV-1" vertex="1">
          <mxGeometry x="380" y="420" width="165" height="110" as="geometry" />
        </mxCell>
        <mxCell id="jptzYvX1HZ7frNo7eppI-11" value="&lt;p style=&quot;text-align: center; margin: 4px 0px 0px; text-decoration: underline; line-height: 110%; font-size: 11px;&quot;&gt;&lt;/p&gt;&lt;div style=&quot;text-align: center;&quot;&gt;&lt;font color=&quot;#ffffff&quot;&gt;&lt;b&gt;&lt;u&gt;purchasedItems&lt;/u&gt;&lt;/b&gt;&lt;/font&gt;&lt;/div&gt;&lt;hr&gt;&lt;p style=&quot;margin: 4px 0px 0px; line-height: 110%; font-size: 11px;&quot;&gt;&lt;b style=&quot;background-color: initial; color: rgb(255, 255, 255);&quot;&gt;&amp;nbsp;purchase_item_id&amp;nbsp;&lt;/b&gt;&lt;/p&gt;&lt;b style=&quot;border-color: var(--border-color); font-size: 11px; background-color: initial; color: rgb(255, 255, 255);&quot;&gt;&amp;nbsp;purchase_id&lt;br&gt;&lt;/b&gt;&lt;p style=&quot;margin: 4px 0px 0px; line-height: 110%; font-size: 11px;&quot;&gt;&lt;font color=&quot;#ffffff&quot;&gt;&lt;b&gt;&amp;nbsp;gameID&lt;/b&gt;&lt;/font&gt;&lt;/p&gt;&lt;p style=&quot;margin: 4px 0px 0px; line-height: 110%; font-size: 11px;&quot;&gt;&lt;font color=&quot;#ffffff&quot;&gt;&lt;b&gt;&amp;nbsp;price&lt;/b&gt;&lt;/font&gt;&lt;/p&gt;&lt;p style=&quot;margin: 4px 0px 0px; line-height: 110%; font-size: 11px;&quot;&gt;&lt;br&gt;&lt;/p&gt;" style="verticalAlign=middle;align=left;overflow=fill;fontSize=12;fontFamily=Helvetica;html=1;strokeColor=#003366;shadow=1;fillColor=#969696;fontColor=#003366;gradientColor=#303030;labelPosition=center;verticalLabelPosition=middle;spacingTop=0;spacingLeft=6;" parent="WIyWlLk6GJQsqaUBKTNV-1" vertex="1">
          <mxGeometry x="620" y="400" width="165" height="130" as="geometry" />
        </mxCell>
        <mxCell id="CZm6SHvvuFJAMLxcfLi6-0" value="&lt;p style=&quot;text-align: center; margin: 4px 0px 0px; text-decoration: underline; line-height: 110%; font-size: 11px;&quot;&gt;&lt;font color=&quot;#ffffff&quot; style=&quot;font-size: 11px;&quot;&gt;&lt;b style=&quot;&quot;&gt;Role&lt;/b&gt;&lt;/font&gt;&lt;/p&gt;&lt;p style=&quot;margin: 4px 0px 0px; line-height: 110%; font-size: 11px;&quot;&gt;&lt;font color=&quot;#ffffff&quot;&gt;&lt;b&gt;&amp;nbsp;id&lt;/b&gt;&lt;/font&gt;&lt;/p&gt;&lt;p style=&quot;margin: 4px 0px 0px; line-height: 110%; font-size: 11px;&quot;&gt;&lt;font color=&quot;#ffffff&quot;&gt;&lt;b&gt;&amp;nbsp;role_name&lt;/b&gt;&lt;/font&gt;&lt;/p&gt;" style="verticalAlign=middle;align=left;overflow=fill;fontSize=12;fontFamily=Helvetica;html=1;strokeColor=#003366;shadow=1;fillColor=#969696;fontColor=#003366;gradientColor=#303030;labelPosition=center;verticalLabelPosition=middle;spacingTop=0;spacingLeft=6;" parent="WIyWlLk6GJQsqaUBKTNV-1" vertex="1">
          <mxGeometry x="130" y="100" width="165" height="80" as="geometry" />
        </mxCell>
        <mxCell id="hjKOq4GPRmRRccD55Ov9-2" value="" style="edgeStyle=entityRelationEdgeStyle;fontSize=12;html=1;endArrow=ERoneToMany;rounded=0;strokeWidth=1;startSize=11;endSize=9;exitX=1.011;exitY=0.539;exitDx=0;exitDy=0;exitPerimeter=0;entryX=-0.01;entryY=0.61;entryDx=0;entryDy=0;entryPerimeter=0;" parent="WIyWlLk6GJQsqaUBKTNV-1" source="jptzYvX1HZ7frNo7eppI-8" target="jptzYvX1HZ7frNo7eppI-11" edge="1">
          <mxGeometry width="100" height="100" relative="1" as="geometry">
            <mxPoint x="580" y="480" as="sourcePoint" />
            <mxPoint x="680" y="380" as="targetPoint" />
          </mxGeometry>
        </mxCell>
        <mxCell id="hjKOq4GPRmRRccD55Ov9-3" value="&lt;p style=&quot;text-align: center; margin: 4px 0px 0px; text-decoration: underline; line-height: 110%; font-size: 11px;&quot;&gt;&lt;font color=&quot;#ffffff&quot; style=&quot;font-size: 11px;&quot;&gt;&lt;b style=&quot;&quot;&gt;Account_credentials&lt;/b&gt;&lt;/font&gt;&lt;/p&gt;&lt;p style=&quot;margin: 4px 0px 0px; line-height: 110%; font-size: 11px;&quot;&gt;&lt;font color=&quot;#ffffff&quot;&gt;&lt;b&gt;&amp;nbsp;id&lt;/b&gt;&lt;/font&gt;&lt;/p&gt;&lt;p style=&quot;margin: 4px 0px 0px; line-height: 110%; font-size: 11px;&quot;&gt;&lt;font color=&quot;#ffffff&quot;&gt;&lt;b&gt;&amp;nbsp;username&lt;/b&gt;&lt;/font&gt;&lt;/p&gt;&lt;p style=&quot;margin: 4px 0px 0px; line-height: 110%; font-size: 11px;&quot;&gt;&lt;font color=&quot;#ffffff&quot;&gt;&lt;b&gt;&amp;nbsp;hash_password&lt;/b&gt;&lt;/font&gt;&lt;/p&gt;&lt;p style=&quot;margin: 4px 0px 0px; line-height: 110%; font-size: 11px;&quot;&gt;&lt;font color=&quot;#ffffff&quot;&gt;&lt;b&gt;&amp;nbsp;Salt&lt;/b&gt;&lt;/font&gt;&lt;/p&gt;" style="verticalAlign=middle;align=left;overflow=fill;fontSize=12;fontFamily=Helvetica;html=1;strokeColor=#003366;shadow=1;fillColor=#969696;fontColor=#003366;gradientColor=#303030;labelPosition=center;verticalLabelPosition=middle;spacingTop=0;spacingLeft=6;" parent="WIyWlLk6GJQsqaUBKTNV-1" vertex="1">
          <mxGeometry x="130" y="210" width="165" height="90" as="geometry" />
        </mxCell>
        <mxCell id="hjKOq4GPRmRRccD55Ov9-4" value="" style="edgeStyle=elbowEdgeStyle;fontSize=12;html=1;endArrow=ERone;endFill=1;rounded=0;entryX=0.994;entryY=0.591;entryDx=0;entryDy=0;entryPerimeter=0;exitX=0.003;exitY=0.172;exitDx=0;exitDy=0;exitPerimeter=0;elbow=vertical;strokeWidth=1;" parent="WIyWlLk6GJQsqaUBKTNV-1" edge="1">
          <mxGeometry width="100" height="100" relative="1" as="geometry">
            <mxPoint x="381.4850000000001" y="249.57999999999993" as="sourcePoint" />
            <mxPoint x="295" y="250.41999999999996" as="targetPoint" />
          </mxGeometry>
        </mxCell>
        <mxCell id="0DkEPTCjMqvG4AahG3YA-2" value="" style="edgeStyle=elbowEdgeStyle;fontSize=12;html=1;endArrow=ERone;endFill=1;rounded=0;entryX=1.008;entryY=0.637;entryDx=0;entryDy=0;entryPerimeter=0;exitX=0.003;exitY=0.172;exitDx=0;exitDy=0;exitPerimeter=0;elbow=vertical;strokeWidth=1;" parent="WIyWlLk6GJQsqaUBKTNV-1" target="CZm6SHvvuFJAMLxcfLi6-0" edge="1">
          <mxGeometry width="100" height="100" relative="1" as="geometry">
            <mxPoint x="379.9950000000001" y="149.99999999999994" as="sourcePoint" />
            <mxPoint x="293.51" y="150.83999999999997" as="targetPoint" />
          </mxGeometry>
        </mxCell>
        <mxCell id="0DkEPTCjMqvG4AahG3YA-3" value="" style="edgeStyle=orthogonalEdgeStyle;fontSize=12;html=1;endArrow=ERzeroToMany;endFill=1;rounded=0;exitX=0.455;exitY=1.002;exitDx=0;exitDy=0;exitPerimeter=0;entryX=0.452;entryY=-0.003;entryDx=0;entryDy=0;entryPerimeter=0;" parent="WIyWlLk6GJQsqaUBKTNV-1" source="jptzYvX1HZ7frNo7eppI-2" target="jptzYvX1HZ7frNo7eppI-8" edge="1">
          <mxGeometry width="100" height="100" relative="1" as="geometry">
            <mxPoint x="460" y="390" as="sourcePoint" />
            <mxPoint x="560" y="290" as="targetPoint" />
          </mxGeometry>
        </mxCell>
        <mxCell id="0DkEPTCjMqvG4AahG3YA-4" value="" style="edgeStyle=elbowEdgeStyle;fontSize=12;html=1;endArrow=ERoneToMany;rounded=0;exitX=0.5;exitY=0;exitDx=0;exitDy=0;entryX=0.56;entryY=1.013;entryDx=0;entryDy=0;entryPerimeter=0;" parent="WIyWlLk6GJQsqaUBKTNV-1" source="jptzYvX1HZ7frNo7eppI-11" target="jptzYvX1HZ7frNo7eppI-3" edge="1">
          <mxGeometry width="100" height="100" relative="1" as="geometry">
            <mxPoint x="630" y="370" as="sourcePoint" />
            <mxPoint x="703" y="250" as="targetPoint" />
          </mxGeometry>
        </mxCell>
        <mxCell id="vJNY4_WP8R9wpnMNuHG5-0" value="&lt;p style=&quot;text-align: center; margin: 4px 0px 0px; text-decoration: underline; line-height: 110%; font-size: 11px;&quot;&gt;&lt;/p&gt;&lt;p style=&quot;margin: 4px 0px 0px; line-height: 110%; font-size: 11px;&quot;&gt;&lt;font color=&quot;#ffffff&quot; style=&quot;font-size: 11px;&quot;&gt;&lt;b style=&quot;&quot;&gt;&amp;nbsp;&lt;span style=&quot;white-space: pre;&quot;&gt; &lt;/span&gt;&lt;span style=&quot;white-space: pre;&quot;&gt; &lt;/span&gt;&lt;u&gt;GameGenre&lt;/u&gt;&lt;/b&gt;&lt;/font&gt;&lt;/p&gt;&lt;hr&gt;&lt;p style=&quot;margin: 4px 0px 0px; line-height: 110%; font-size: 11px;&quot;&gt;&lt;font color=&quot;#ffffff&quot; style=&quot;font-size: 11px;&quot;&gt;&lt;b style=&quot;&quot;&gt;&amp;nbsp;id&lt;/b&gt;&lt;/font&gt;&lt;/p&gt;&lt;p style=&quot;margin: 4px 0px 0px; line-height: 110%; font-size: 11px;&quot;&gt;&lt;font color=&quot;#ffffff&quot; style=&quot;font-size: 11px;&quot;&gt;&lt;b style=&quot;&quot;&gt;&amp;nbsp;name&lt;/b&gt;&lt;/font&gt;&lt;/p&gt;&lt;p style=&quot;margin: 4px 0px 0px; line-height: 110%; font-size: 11px;&quot;&gt;&lt;br&gt;&lt;/p&gt;" style="verticalAlign=middle;align=left;overflow=fill;fontSize=12;fontFamily=Helvetica;html=1;strokeColor=#003366;shadow=1;fillColor=#969696;fontColor=#003366;gradientColor=#303030;labelPosition=center;verticalLabelPosition=middle;spacingTop=0;spacingLeft=6;" parent="WIyWlLk6GJQsqaUBKTNV-1" vertex="1">
          <mxGeometry x="840" y="100" width="165" height="70" as="geometry" />
        </mxCell>
        <mxCell id="vJNY4_WP8R9wpnMNuHG5-1" value="" style="edgeStyle=elbowEdgeStyle;fontSize=12;html=1;endArrow=ERoneToMany;rounded=0;exitX=0.991;exitY=0.322;exitDx=0;exitDy=0;exitPerimeter=0;" parent="WIyWlLk6GJQsqaUBKTNV-1" source="jptzYvX1HZ7frNo7eppI-3" edge="1">
          <mxGeometry width="100" height="100" relative="1" as="geometry">
            <mxPoint x="950" y="360" as="sourcePoint" />
            <mxPoint x="840" y="143" as="targetPoint" />
            <Array as="points">
              <mxPoint x="820" y="140" />
              <mxPoint x="790" y="140" />
              <mxPoint x="790" y="150" />
            </Array>
          </mxGeometry>
        </mxCell>
        <mxCell id="vJNY4_WP8R9wpnMNuHG5-3" value="" style="edgeStyle=elbowEdgeStyle;fontSize=12;html=1;endArrow=ERone;endFill=1;rounded=0;entryX=0;entryY=0.5;entryDx=0;entryDy=0;exitX=1;exitY=0.5;exitDx=0;exitDy=0;elbow=vertical;strokeWidth=1;" parent="WIyWlLk6GJQsqaUBKTNV-1" source="vJNY4_WP8R9wpnMNuHG5-0" target="jptzYvX1HZ7frNo7eppI-5" edge="1">
          <mxGeometry width="100" height="100" relative="1" as="geometry">
            <mxPoint x="1088.9950000000001" y="199.99999999999994" as="sourcePoint" />
            <mxPoint x="1005" y="201" as="targetPoint" />
          </mxGeometry>
        </mxCell>
        <mxCell id="vJNY4_WP8R9wpnMNuHG5-4" value="&lt;p style=&quot;text-align: center; margin: 4px 0px 0px; text-decoration: underline; line-height: 110%; font-size: 11px;&quot;&gt;&lt;/p&gt;&lt;p style=&quot;margin: 4px 0px 0px; line-height: 110%; font-size: 11px;&quot;&gt;&lt;font color=&quot;#ffffff&quot; style=&quot;font-size: 11px;&quot;&gt;&lt;b style=&quot;&quot;&gt;&amp;nbsp;&lt;span style=&quot;white-space: pre;&quot;&gt; &lt;/span&gt;&lt;span style=&quot;white-space: pre;&quot;&gt; &lt;/span&gt;&lt;u&gt;GameImages&lt;/u&gt;&lt;/b&gt;&lt;/font&gt;&lt;/p&gt;&lt;hr&gt;&lt;p style=&quot;margin: 4px 0px 0px; line-height: 110%; font-size: 11px;&quot;&gt;&lt;b style=&quot;color: rgb(255, 255, 255); background-color: initial;&quot;&gt;imageid&lt;/b&gt;&lt;/p&gt;&lt;p style=&quot;margin: 4px 0px 0px; line-height: 110%; font-size: 11px;&quot;&gt;&lt;b style=&quot;color: rgb(255, 255, 255); background-color: initial;&quot;&gt;gameid&lt;/b&gt;&lt;br&gt;&lt;/p&gt;&lt;p style=&quot;margin: 4px 0px 0px; line-height: 110%; font-size: 11px;&quot;&gt;&lt;b style=&quot;color: rgb(255, 255, 255); background-color: initial;&quot;&gt;imagetype&lt;/b&gt;&lt;/p&gt;&lt;p style=&quot;margin: 4px 0px 0px; line-height: 110%; font-size: 11px;&quot;&gt;&lt;b style=&quot;color: rgb(255, 255, 255); background-color: initial;&quot;&gt;imageurl&lt;/b&gt;&lt;/p&gt;&lt;p style=&quot;margin: 4px 0px 0px; line-height: 110%; font-size: 11px;&quot;&gt;&lt;br&gt;&lt;/p&gt;" style="verticalAlign=middle;align=left;overflow=fill;fontSize=12;fontFamily=Helvetica;html=1;strokeColor=#003366;shadow=1;fillColor=#969696;fontColor=#003366;gradientColor=#303030;labelPosition=center;verticalLabelPosition=middle;spacingTop=0;spacingLeft=6;" parent="WIyWlLk6GJQsqaUBKTNV-1" vertex="1">
          <mxGeometry x="730" y="-40" width="165" height="90" as="geometry" />
        </mxCell>
        <mxCell id="vJNY4_WP8R9wpnMNuHG5-6" value="" style="edgeStyle=elbowEdgeStyle;fontSize=12;html=1;endArrow=ERoneToMany;rounded=0;exitX=0.5;exitY=0;exitDx=0;exitDy=0;entryX=0.182;entryY=1.015;entryDx=0;entryDy=0;entryPerimeter=0;" parent="WIyWlLk6GJQsqaUBKTNV-1" source="jptzYvX1HZ7frNo7eppI-3" target="vJNY4_WP8R9wpnMNuHG5-4" edge="1">
          <mxGeometry width="100" height="100" relative="1" as="geometry">
            <mxPoint x="720" y="80" as="sourcePoint" />
            <mxPoint x="760" y="60" as="targetPoint" />
            <Array as="points">
              <mxPoint x="760" y="80" />
              <mxPoint x="730" y="90" />
              <mxPoint x="770" y="70" />
              <mxPoint x="750" y="80" />
              <mxPoint x="725" y="107" />
            </Array>
          </mxGeometry>
        </mxCell>
        <mxCell id="vJNY4_WP8R9wpnMNuHG5-7" value="&lt;p style=&quot;text-align: center; margin: 4px 0px 0px; text-decoration: underline; line-height: 110%; font-size: 11px;&quot;&gt;&lt;/p&gt;&lt;p style=&quot;margin: 4px 0px 0px; line-height: 110%; font-size: 11px;&quot;&gt;&lt;font color=&quot;#ffffff&quot; style=&quot;font-size: 11px;&quot;&gt;&lt;b style=&quot;&quot;&gt;&amp;nbsp;&lt;span style=&quot;white-space: pre;&quot;&gt; &lt;/span&gt;&lt;span style=&quot;white-space: pre;&quot;&gt; &lt;/span&gt;&lt;u&gt;GameFeature&lt;/u&gt;&lt;/b&gt;&lt;/font&gt;&lt;/p&gt;&lt;hr&gt;&lt;p style=&quot;margin: 4px 0px 0px; line-height: 110%; font-size: 11px;&quot;&gt;&lt;font color=&quot;#ffffff&quot; style=&quot;font-size: 11px;&quot;&gt;&lt;b style=&quot;&quot;&gt;&amp;nbsp;id&lt;/b&gt;&lt;/font&gt;&lt;/p&gt;&lt;p style=&quot;margin: 4px 0px 0px; line-height: 110%; font-size: 11px;&quot;&gt;&lt;font color=&quot;#ffffff&quot; style=&quot;font-size: 11px;&quot;&gt;&lt;b style=&quot;&quot;&gt;&amp;nbsp;name&lt;/b&gt;&lt;/font&gt;&lt;/p&gt;&lt;p style=&quot;margin: 4px 0px 0px; line-height: 110%; font-size: 11px;&quot;&gt;&lt;br&gt;&lt;/p&gt;" style="verticalAlign=middle;align=left;overflow=fill;fontSize=12;fontFamily=Helvetica;html=1;strokeColor=#003366;shadow=1;fillColor=#969696;fontColor=#003366;gradientColor=#303030;labelPosition=center;verticalLabelPosition=middle;spacingTop=0;spacingLeft=6;" parent="WIyWlLk6GJQsqaUBKTNV-1" vertex="1">
          <mxGeometry x="840" y="200" width="165" height="70" as="geometry" />
        </mxCell>
        <mxCell id="vJNY4_WP8R9wpnMNuHG5-9" value="&lt;p style=&quot;text-align: center; margin: 4px 0px 0px; text-decoration: underline; line-height: 110%; font-size: 11px;&quot;&gt;&lt;/p&gt;&lt;p style=&quot;margin: 4px 0px 0px; line-height: 110%; font-size: 11px;&quot;&gt;&lt;font color=&quot;#ffffff&quot; style=&quot;font-size: 11px;&quot;&gt;&lt;b style=&quot;&quot;&gt;&amp;nbsp;&lt;span style=&quot;white-space: pre;&quot;&gt; &lt;/span&gt;&lt;span style=&quot;white-space: pre;&quot;&gt; &lt;u&gt;Feature&lt;/u&gt;&lt;/span&gt;&lt;/b&gt;&lt;/font&gt;&lt;/p&gt;&lt;hr&gt;&lt;p style=&quot;margin: 4px 0px 0px; line-height: 110%; font-size: 11px;&quot;&gt;&lt;font color=&quot;#ffffff&quot; style=&quot;font-size: 11px;&quot;&gt;&lt;b style=&quot;&quot;&gt;&amp;nbsp;id&lt;/b&gt;&lt;/font&gt;&lt;/p&gt;&lt;p style=&quot;margin: 4px 0px 0px; line-height: 110%; font-size: 11px;&quot;&gt;&lt;font color=&quot;#ffffff&quot; style=&quot;font-size: 11px;&quot;&gt;&lt;b style=&quot;&quot;&gt;&amp;nbsp;name&lt;/b&gt;&lt;/font&gt;&lt;/p&gt;&lt;p style=&quot;margin: 4px 0px 0px; line-height: 110%; font-size: 11px;&quot;&gt;&lt;br&gt;&lt;/p&gt;" style="verticalAlign=middle;align=left;overflow=fill;fontSize=12;fontFamily=Helvetica;html=1;strokeColor=#003366;shadow=1;fillColor=#969696;fontColor=#003366;gradientColor=#303030;labelPosition=center;verticalLabelPosition=middle;spacingTop=0;spacingLeft=6;" parent="WIyWlLk6GJQsqaUBKTNV-1" vertex="1">
          <mxGeometry x="1076" y="200" width="165" height="70" as="geometry" />
        </mxCell>
        <mxCell id="vJNY4_WP8R9wpnMNuHG5-10" value="" style="edgeStyle=elbowEdgeStyle;fontSize=12;html=1;endArrow=ERone;endFill=1;rounded=0;entryX=0;entryY=0.5;entryDx=0;entryDy=0;exitX=1;exitY=0.5;exitDx=0;exitDy=0;elbow=vertical;strokeWidth=1;" parent="WIyWlLk6GJQsqaUBKTNV-1" edge="1">
          <mxGeometry width="100" height="100" relative="1" as="geometry">
            <mxPoint x="1005" y="234.57999999999998" as="sourcePoint" />
            <mxPoint x="1076" y="234.57999999999998" as="targetPoint" />
          </mxGeometry>
        </mxCell>
        <mxCell id="vJNY4_WP8R9wpnMNuHG5-12" value="" style="edgeStyle=elbowEdgeStyle;fontSize=12;html=1;endArrow=ERoneToMany;rounded=0;exitX=0.991;exitY=0.322;exitDx=0;exitDy=0;exitPerimeter=0;" parent="WIyWlLk6GJQsqaUBKTNV-1" edge="1">
          <mxGeometry width="100" height="100" relative="1" as="geometry">
            <mxPoint x="774" y="220" as="sourcePoint" />
            <mxPoint x="840" y="221" as="targetPoint" />
            <Array as="points">
              <mxPoint x="820" y="218" />
              <mxPoint x="790" y="218" />
              <mxPoint x="790" y="228" />
            </Array>
          </mxGeometry>
        </mxCell>
        <mxCell id="vJNY4_WP8R9wpnMNuHG5-13" value="&lt;p style=&quot;text-align: center; margin: 4px 0px 0px; text-decoration: underline; line-height: 110%; font-size: 11px;&quot;&gt;&lt;/p&gt;&lt;p style=&quot;margin: 4px 0px 0px; line-height: 110%; font-size: 11px;&quot;&gt;&lt;font color=&quot;#ffffff&quot; style=&quot;font-size: 11px;&quot;&gt;&lt;b style=&quot;&quot;&gt;&amp;nbsp;&lt;span style=&quot;white-space: pre;&quot;&gt; &lt;/span&gt;&lt;span style=&quot;white-space: pre;&quot;&gt; &lt;/span&gt;&lt;u&gt;Specifications&lt;/u&gt;&lt;/b&gt;&lt;/font&gt;&lt;/p&gt;&lt;hr&gt;&lt;p style=&quot;margin: 4px 0px 0px; line-height: 110%; font-size: 11px;&quot;&gt;&lt;b style=&quot;color: rgb(255, 255, 255); background-color: initial;&quot;&gt;specificationid&lt;/b&gt;&lt;/p&gt;&lt;p style=&quot;margin: 4px 0px 0px; line-height: 110%; font-size: 11px;&quot;&gt;&lt;b style=&quot;color: rgb(255, 255, 255); background-color: initial;&quot;&gt;gameid&lt;/b&gt;&lt;br&gt;&lt;/p&gt;&lt;p style=&quot;margin: 4px 0px 0px; line-height: 110%; font-size: 11px;&quot;&gt;&lt;font color=&quot;#ffffff&quot;&gt;&lt;b&gt;specificationtype&lt;/b&gt;&lt;/font&gt;&lt;/p&gt;&lt;p style=&quot;margin: 4px 0px 0px; line-height: 110%; font-size: 11px;&quot;&gt;&lt;font color=&quot;#ffffff&quot;&gt;&lt;b&gt;os&lt;/b&gt;&lt;/font&gt;&lt;/p&gt;&lt;p style=&quot;margin: 4px 0px 0px; line-height: 110%; font-size: 11px;&quot;&gt;&lt;font color=&quot;#ffffff&quot;&gt;&lt;b&gt;processor&lt;/b&gt;&lt;/font&gt;&lt;/p&gt;&lt;p style=&quot;margin: 4px 0px 0px; line-height: 110%; font-size: 11px;&quot;&gt;&lt;font color=&quot;#ffffff&quot;&gt;&lt;b&gt;memory&lt;/b&gt;&lt;/font&gt;&lt;/p&gt;&lt;p style=&quot;margin: 4px 0px 0px; line-height: 110%; font-size: 11px;&quot;&gt;&lt;font color=&quot;#ffffff&quot;&gt;&lt;b&gt;storage&lt;/b&gt;&lt;/font&gt;&lt;/p&gt;&lt;p style=&quot;margin: 4px 0px 0px; line-height: 110%; font-size: 11px;&quot;&gt;&lt;font color=&quot;#ffffff&quot;&gt;&lt;b&gt;directx&lt;/b&gt;&lt;/font&gt;&lt;/p&gt;&lt;p style=&quot;margin: 4px 0px 0px; line-height: 110%; font-size: 11px;&quot;&gt;&lt;font color=&quot;#ffffff&quot;&gt;&lt;b&gt;graphics&lt;/b&gt;&lt;/font&gt;&lt;/p&gt;&lt;p style=&quot;margin: 4px 0px 0px; line-height: 110%; font-size: 11px;&quot;&gt;&lt;font color=&quot;#ffffff&quot;&gt;&lt;b&gt;other&lt;/b&gt;&lt;/font&gt;&lt;/p&gt;&lt;p style=&quot;margin: 4px 0px 0px; line-height: 110%; font-size: 11px;&quot;&gt;&lt;font color=&quot;#ffffff&quot;&gt;&lt;b&gt;logins&lt;/b&gt;&lt;/font&gt;&lt;/p&gt;&lt;p style=&quot;margin: 4px 0px 0px; line-height: 110%; font-size: 11px;&quot;&gt;&lt;br&gt;&lt;/p&gt;" style="verticalAlign=middle;align=left;overflow=fill;fontSize=12;fontFamily=Helvetica;html=1;strokeColor=#003366;shadow=1;fillColor=#969696;fontColor=#003366;gradientColor=#303030;labelPosition=center;verticalLabelPosition=middle;spacingTop=0;spacingLeft=6;" parent="WIyWlLk6GJQsqaUBKTNV-1" vertex="1">
          <mxGeometry x="500" y="-160" width="165" height="210" as="geometry" />
        </mxCell>
        <mxCell id="vJNY4_WP8R9wpnMNuHG5-14" value="" style="edgeStyle=elbowEdgeStyle;fontSize=12;html=1;endArrow=ERoneToMany;rounded=0;exitX=0.25;exitY=0;exitDx=0;exitDy=0;entryX=0.182;entryY=1.015;entryDx=0;entryDy=0;entryPerimeter=0;" parent="WIyWlLk6GJQsqaUBKTNV-1" source="jptzYvX1HZ7frNo7eppI-3" edge="1">
          <mxGeometry width="100" height="100" relative="1" as="geometry">
            <mxPoint x="560" y="99" as="sourcePoint" />
            <mxPoint x="627" y="50" as="targetPoint" />
            <Array as="points">
              <mxPoint x="627" y="79" />
              <mxPoint x="597" y="89" />
              <mxPoint x="637" y="69" />
              <mxPoint x="617" y="79" />
              <mxPoint x="592" y="106" />
            </Array>
          </mxGeometry>
        </mxCell>
      </root>
    </mxGraphModel>
  </diagram>
</mxfile>
